<svg width="51" height="56" viewBox="0 0 51 56" fill="none" xmlns="http://www.w3.org/2000/svg">
<path d="M1.73125 14.4278L25.375 28.1049L49.0187 14.4278M25.375 55.3778V28.0778M49.75 38.9111V17.2444C49.749 16.2946 49.4983 15.3616 49.0229 14.5393C48.5476 13.7169 47.8643 13.034 47.0417 12.559L28.0833 1.7257C27.2599 1.25028 26.3258 1 25.375 1C24.4242 1 23.4901 1.25028 22.6667 1.7257L3.70833 12.559C2.88571 13.034 2.20245 13.7169 1.72708 14.5393C1.25172 15.3616 1.00097 16.2946 1 17.2444V38.9111C1.00097 39.861 1.25172 40.7939 1.72708 41.6163C2.20245 42.4387 2.88571 43.1216 3.70833 43.5965L22.6667 54.4299C23.4901 54.9053 24.4242 55.1556 25.375 55.1556C26.3258 55.1556 27.2599 54.9053 28.0833 54.4299L47.0417 43.5965C47.8643 43.1216 48.5476 42.4387 49.0229 41.6163C49.4983 40.7939 49.749 39.861 49.75 38.9111Z" stroke="#B3B7BF" stroke-linecap="round" stroke-linejoin="round"/>
</svg>
