<svg width="53" height="59" viewBox="0 0 53 59" fill="none" xmlns="http://www.w3.org/2000/svg">
<path d="M2.85625 15.85L26.5 29.5271L50.1437 15.85M26.5 56.8V29.5M50.875 40.3333V18.6667C50.874 17.7168 50.6233 16.7839 50.1479 15.9615C49.6726 15.1391 48.9893 14.4562 48.1667 13.9813L29.2083 3.14792C28.3849 2.67251 27.4508 2.42222 26.5 2.42222C25.5492 2.42222 24.6151 2.67251 23.7917 3.14792L4.83333 13.9813C4.01071 14.4562 3.32745 15.1391 2.85208 15.9615C2.37672 16.7839 2.12597 17.7168 2.125 18.6667V40.3333C2.12597 41.2832 2.37672 42.2161 2.85208 43.0385C3.32745 43.8609 4.01071 44.5438 4.83333 45.0187L23.7917 55.8521C24.6151 56.3275 25.5492 56.5778 26.5 56.5778C27.4508 56.5778 28.3849 56.3275 29.2083 55.8521L48.1667 45.0187C48.9893 44.5438 49.6726 43.8609 50.1479 43.0385C50.6233 42.2161 50.874 41.2832 50.875 40.3333Z" stroke="#007AFF" stroke-width="4" stroke-linecap="round" stroke-linejoin="round"/>
</svg>
